<?xml version="1.0" encoding="utf-8"?>
<!-- Generator: Adobe Illustrator 23.0.3, SVG Export Plug-In . SVG Version: 6.00 Build 0)  -->
<svg version="1.1" id="Layer_1" xmlns="http://www.w3.org/2000/svg" xmlns:xlink="http://www.w3.org/1999/xlink" x="0px" y="0px"
	 viewBox="0 0 2688.4 2435.9" style="enable-background:new 0 0 2688.4 2435.9;" xml:space="preserve">
<style type="text/css">
	.st0{fill:#00C853;}
	.st1{fill-rule:evenodd;clip-rule:evenodd;fill:#00C853;}
</style>
<title>Netdata logo</title>
<path class="st0" d="M238.6,2027.4c44.5,0,79.7,13,105.7,39c26.4,25.5,39.6,63.2,39.6,112.9v201.4h-63.4v-194.1
	c0-33.9-8.1-59.4-24.4-76.6s-39.6-25.8-70-25.8c-34.3,0-61.4,10.1-81.2,30.4c-19.8,19.8-29.7,48.4-29.7,85.9v180.3H51.7v-350h60.8
	v52.8c12.8-18.1,29.9-31.9,51.5-41.6C186,2032.2,210.9,2027.4,238.6,2027.4z M804.3,2207.7c0,4.8-0.4,11.2-1.3,19.1H519
	c4,30.8,17.4,55.7,40.3,74.6c23.3,18.5,52.2,27.7,86.5,27.7c41.8,0,75.5-14.1,101-42.3l35,40.9c-15.8,18.5-35.7,32.6-59.4,42.3
	c-23.3,9.7-49.5,14.5-78.6,14.5c-37,0-69.8-7.5-98.4-22.5c-28.6-15.4-50.9-36.8-66.7-64.1c-15.4-27.3-23.1-58.1-23.1-92.4
	c0-33.9,7.5-64.5,22.5-91.8c15.4-27.3,36.3-48.4,62.7-63.4c26.9-15.4,57-23.1,90.5-23.1s63.2,7.7,89.2,23.1
	c26.4,15,46.9,36.1,61.4,63.4C796.8,2141.2,804.3,2172.5,804.3,2207.7L804.3,2207.7z M631.3,2080.9c-30.4,0-55.9,9.3-76.6,27.7
	c-20.3,18.5-32.1,42.7-35.7,72.6h224.5c-3.5-29.5-15.6-53.5-36.3-72C687,2090.4,661.7,2080.9,631.3,2080.9L631.3,2080.9z
	 M1095.8,2360.2c-9.2,7.9-20.7,14.1-34.3,18.5c-13.6,4-27.7,5.9-42.3,5.9c-35.2,0-62.5-9.5-81.9-28.4c-19.4-18.9-29.1-46-29.1-81.2
	v-192.2h-59.4v-52.2h59.4v-76.6h63.4v76.6H1072v52.2H971.6v189.5c0,18.9,4.6,33.5,13.9,43.6c9.7,10.1,23.3,15.2,40.9,15.2
	c19.4,0,35.9-5.5,49.5-16.5L1095.8,2360.2z M1489.4,1890.7v490h-60.8v-55.5c-14.1,19.4-31.9,34.1-53.5,44.3
	c-21.6,10.1-45.3,15.2-71.3,15.2c-33.9,0-64.3-7.5-91.1-22.5c-26.8-15-48-35.9-63.4-62.7c-15-27.3-22.5-58.6-22.5-93.8
	s7.5-66.3,22.5-93.1c15.4-26.8,36.5-47.8,63.4-62.7c26.9-15,57.2-22.5,91.1-22.5c25.1,0,48.2,4.8,69.3,14.5
	c21.1,9.3,38.7,23.1,52.8,41.6v-192.8H1489.4z M1309.1,2329.2c22,0,42.1-5.1,60.1-15.2c18.1-10.6,32.1-25.1,42.3-43.6
	c10.1-18.9,15.2-40.5,15.2-64.7c0-24.2-5.1-45.6-15.2-64.1c-10.1-18.9-24.2-33.5-42.3-43.6c-18.1-10.1-38.1-15.2-60.1-15.2
	c-22.4,0-42.7,5.1-60.8,15.2c-17.6,10.1-31.7,24.7-42.3,43.6c-10.1,18.5-15.2,39.8-15.2,64.1c0,24.2,5.1,45.8,15.2,64.7
	c10.6,18.5,24.7,33,42.3,43.6C1266.4,2324.1,1286.7,2329.2,1309.1,2329.2z M1919.7,2030.7v350H1859v-55.5
	c-14.1,19.4-31.9,34.1-53.5,44.3c-21.6,10.1-45.3,15.2-71.3,15.2c-33.9,0-64.3-7.5-91.1-22.5c-26.8-15-48-35.9-63.4-62.7
	c-15-27.3-22.5-58.6-22.5-93.8s7.5-66.3,22.5-93.1c15.4-26.8,36.5-47.8,63.4-62.7c26.9-15,57.2-22.5,91.1-22.5
	c25.1,0,48.2,4.8,69.3,14.5c21.1,9.3,38.7,23.1,52.8,41.6v-52.8H1919.7z M1739.4,2329.2c22,0,42.1-5.1,60.1-15.2
	c18.1-10.6,32.1-25.1,42.3-43.6c10.1-18.9,15.2-40.5,15.2-64.7c0-24.2-5.1-45.6-15.2-64.1c-10.1-18.9-24.2-33.5-42.3-43.6
	c-18.1-10.1-38.1-15.2-60.1-15.2c-22.4,0-42.7,5.1-60.8,15.2c-17.6,10.1-31.7,24.7-42.3,43.6c-10.1,18.5-15.2,39.8-15.2,64.1
	c0,24.2,5.1,45.8,15.2,64.7c10.6,18.5,24.7,33,42.3,43.6C1696.7,2324.1,1717,2329.2,1739.4,2329.2z M2243.1,2360.2
	c-9.3,7.9-20.7,14.1-34.4,18.5c-13.6,4-27.7,5.9-42.3,5.9c-35.2,0-62.5-9.5-81.9-28.4c-19.4-18.9-29.1-46-29.1-81.2v-192.2h-59.4
	v-52.2h59.4v-76.6h63.4v76.6h100.4v52.2h-100.4v189.5c0,18.9,4.6,33.5,13.9,43.6c9.7,10.1,23.3,15.2,40.9,15.2
	c19.4,0,35.9-5.5,49.5-16.5L2243.1,2360.2z M2636.7,2030.7v350H2576v-55.5c-14.1,19.4-31.9,34.1-53.5,44.3
	c-21.6,10.1-45.3,15.2-71.3,15.2c-33.9,0-64.3-7.5-91.1-22.5c-26.9-15-48-35.9-63.4-62.7c-15-27.3-22.4-58.6-22.4-93.8
	s7.5-66.3,22.4-93.1c15.4-26.8,36.5-47.8,63.4-62.7c26.9-15,57.2-22.5,91.1-22.5c25.1,0,48.2,4.8,69.3,14.5
	c21.1,9.3,38.8,23.1,52.8,41.6v-52.8H2636.7z M2456.4,2329.2c22,0,42.1-5.1,60.1-15.2c18.1-10.6,32.1-25.1,42.3-43.6
	c10.1-18.9,15.2-40.5,15.2-64.7c0-24.2-5.1-45.6-15.2-64.1c-10.1-18.9-24.2-33.5-42.3-43.6c-18.1-10.1-38.1-15.2-60.1-15.2
	c-22.4,0-42.7,5.1-60.8,15.2c-17.6,10.1-31.7,24.7-42.3,43.6c-10.1,18.5-15.2,39.8-15.2,64.1c0,24.2,5.1,45.8,15.2,64.7
	c10.6,18.5,24.7,33,42.3,43.6C2413.7,2324.1,2434,2329.2,2456.4,2329.2z"/>
<path class="st1" d="M483.9,890.5c0-370.8,234.4-686.9,563.2-808.1c137.7-11.6,280.1,19.2,406.8,97.2
	c81.9,50.5,149.2,115.7,200.4,190.2c-9.8-112.9-48-222.6-112-317.6c161.6,37.9,305.7,121.3,418,236c41.4,57.5,71.6,124.5,86.8,198.5
	c14.9,72.8,13.7,145.1-1.2,213.3c38.6-43,69.7-92.2,92.1-145.5c43.8,103.2,68,216.8,68,336c0,475.5-385.5,861-861.1,861
	C869.4,1751.5,483.9,1366,483.9,890.5L483.9,890.5z M1662.1,1403c107.8,0,195.3-87.4,195.3-195.3c0-107.8-87.4-195.3-195.3-195.3
	c-107.8,0-195.3,87.4-195.3,195.3C1466.9,1315.6,1554.3,1403,1662.1,1403z"/>
</svg>
